<?xml version="1.0" encoding="UTF-8"?>
<svg xmlns="http://www.w3.org/2000/svg" xmlns:xlink="http://www.w3.org/1999/xlink" width="65px" height="65px" viewBox="0 0 65 104" version="1.1">
<g id="surface1">
<path style=" stroke:none;fill-rule:nonzero;fill:rgb(0%,0%,0%);fill-opacity:1;" d="M 64.59375 36.054688 C 65.367188 34.265625 65 32.195312 63.660156 30.773438 L 36.035156 1.523438 C 35.121094 0.546875 33.839844 0 32.5 0 C 31.160156 0 29.878906 0.546875 28.964844 1.523438 L 1.339844 30.773438 C 0 32.195312 -0.367188 34.265625 0.40625 36.054688 C 1.179688 37.84375 2.925781 39 4.875 39 L 19.5 39 L 19.5 97.5 C 19.5 101.09375 22.40625 104 26 104 L 39 104 C 42.59375 104 45.5 101.09375 45.5 97.5 L 45.5 39 L 60.125 39 C 62.074219 39 63.820312 37.84375 64.59375 36.054688 Z M 64.59375 36.054688 "/>
</g>
</svg>
