<?xml version="1.0" encoding="UTF-8"?>
<svg xmlns="http://www.w3.org/2000/svg" xmlns:xlink="http://www.w3.org/1999/xlink" width="65px" height="65px" viewBox="0 0 65 57" version="1.1">
<g id="surface1">
<path style=" stroke:none;fill-rule:nonzero;fill:rgb(0%,0%,0%);fill-opacity:1;" d="M 64.976562 28.445312 C 64.976562 30.449219 63.285156 32.019531 61.367188 32.019531 L 57.753906 32.019531 L 57.835938 49.851562 C 57.835938 50.152344 57.8125 50.453125 57.777344 50.753906 L 57.777344 52.546875 C 57.777344 55.007812 55.757812 57 53.265625 57 L 51.457031 57 C 51.335938 57 51.210938 57 51.085938 56.988281 C 50.929688 57 50.769531 57 50.613281 57 L 44.234375 57 C 41.742188 57 39.722656 55.007812 39.722656 52.546875 L 39.722656 42.75 C 39.722656 40.78125 38.109375 39.1875 36.109375 39.1875 L 28.890625 39.1875 C 26.890625 39.1875 25.277344 40.78125 25.277344 42.75 L 25.277344 52.546875 C 25.277344 55.007812 23.257812 57 20.765625 57 L 14.457031 57 C 14.285156 57 14.117188 56.988281 13.949219 56.976562 C 13.8125 56.988281 13.675781 57 13.542969 57 L 11.734375 57 C 9.242188 57 7.222656 55.007812 7.222656 52.546875 L 7.222656 40.078125 C 7.222656 39.976562 7.222656 39.867188 7.234375 39.765625 L 7.234375 32.019531 L 3.609375 32.019531 C 1.578125 32.019531 0 30.460938 0 28.445312 C 0 27.441406 0.339844 26.550781 1.128906 25.773438 L 30.0625 0.890625 C 30.851562 0.109375 31.753906 0 32.546875 0 C 33.335938 0 34.238281 0.222656 34.914062 0.78125 L 63.734375 25.773438 C 64.640625 26.550781 65.089844 27.441406 64.976562 28.445312 Z M 64.976562 28.445312 "/>
</g>
</svg>
