<?xml version="1.0" encoding="UTF-8"?>
<svg xmlns="http://www.w3.org/2000/svg" xmlns:xlink="http://www.w3.org/1999/xlink" width="65px" height="65px" viewBox="0 0 65 74" version="1.1">
<g id="surface1">
<path style=" stroke:none;fill-rule:nonzero;fill:rgb(0%,0%,0%);fill-opacity:1;" d="M 0 11.5625 L 0 33.171875 C 0 35.625 0.972656 37.984375 2.714844 39.71875 L 28.25 65.15625 C 31.875 68.769531 37.753906 68.769531 41.378906 65.15625 L 60.75 45.859375 C 64.375 42.246094 64.375 36.394531 60.75 32.78125 L 35.214844 7.34375 C 33.472656 5.609375 31.105469 4.640625 28.640625 4.640625 L 6.964844 4.640625 C 3.121094 4.625 0 7.734375 0 11.5625 Z M 16.25 16.1875 C 18.8125 16.1875 20.894531 18.257812 20.894531 20.8125 C 20.894531 23.367188 18.8125 25.4375 16.25 25.4375 C 13.6875 25.4375 11.605469 23.367188 11.605469 20.8125 C 11.605469 18.257812 13.6875 16.1875 16.25 16.1875 Z M 16.25 16.1875 "/>
</g>
</svg>
