<?xml version="1.0" encoding="UTF-8"?>
<svg xmlns="http://www.w3.org/2000/svg" xmlns:xlink="http://www.w3.org/1999/xlink" width="65px" height="65px" viewBox="0 0 65 86" version="1.1">
<g id="surface1">
<path style=" stroke:none;fill-rule:nonzero;fill:rgb(0%,0%,0%);fill-opacity:1;" d="M 63.410156 19.921875 C 65.523438 17.820312 65.523438 14.410156 63.410156 12.3125 C 61.292969 10.210938 57.855469 10.210938 55.742188 12.3125 L 1.574219 66.0625 C -0.542969 68.160156 -0.542969 71.570312 1.574219 73.671875 C 3.691406 75.769531 7.125 75.769531 9.242188 73.671875 Z M 21.667969 21.5 C 21.667969 15.5625 16.816406 10.75 10.832031 10.75 C 4.851562 10.75 0 15.5625 0 21.5 C 0 27.4375 4.851562 32.25 10.832031 32.25 C 16.816406 32.25 21.667969 27.4375 21.667969 21.5 Z M 65 64.5 C 65 58.5625 60.148438 53.75 54.167969 53.75 C 48.183594 53.75 43.332031 58.5625 43.332031 64.5 C 43.332031 70.4375 48.183594 75.25 54.167969 75.25 C 60.148438 75.25 65 70.4375 65 64.5 Z M 65 64.5 "/>
</g>
</svg>
